<svg xmlns="http://www.w3.org/2000/svg" viewBox="0 0 1920 372" width="1920" height="372"><defs></defs><g transform="matrix(1,0,0,1,0,-707.431640625)">
<g>
	<g>
		<g transform="matrix(2.133333333,0,0,1.498233201,-1086.529188468,-178.141906803)">
			<path d="M509.3105570944902,596.2878371961817 C509.3105570944902,596.2878371961817 524.3105570944903,611.8432987780739 524.3105570944903,611.8432987780739 C539.9956317021844,627.266681780763 584.5240786388819,656.7646576106195 595.6476854359162,669.0298291892572 C613.0852953921299,688.256981131678 663.1304053294263,701.6285146685819 687.6142445944905,684.3721651293101 C709.7225080574931,668.7901349626502 744.0436167793675,703.194319175401 774.0436167793675,706.2942947613385 C804.0436167793675,709.4943069683698 837.6142445944904,698.5721773363414 867.6142445944904,698.8721651293101 C897.6142445944904,699.2721895433726 926.5508843661778,712.648640370245 956.5508843661778,709.5486647843074 C986.5508843661778,706.3486525772762 1010.2670333158528,685.5865035244462 1040.267033315853,688.7865157314775 C1068.747112133669,699.0078733308333 1120.1217748941374,704.7032996556933 1130.8730570944908,706.2598173830697 C1141.624339294844,707.8163351104462 1204.1696486698447,718.4108056326234 1233.9980570944908,700.920194689042 C1263.9980570944908,698.420194689042 1309.6750286481877,678.0752043468949 1313.3492604901662,676.4433677256393 C1317.023492332145,674.8115311043837 1332.5341969460062,668.3577996601232 1347.7700280669442,656.134648200908 C1362.5794489380064,644.2535901284351 1378.1972259248696,624.453045742326 1378.1972259248696,624.453045742326 C1378.1972259248696,624.453045742326 1401.778304264762,591.0785763843321 1409.3105570944906,591.0785763843321 C1409.3105570944906,591.0785763843321 1409.3105570944906,839.7503847337641 1409.3105570944906,839.7503847337641 C1409.3105570944906,839.7503847337641 1394.3105570944906,839.7503847337641 1394.3105570944906,839.7503847337641 C1379.3105570944906,839.7503847337641 1349.3105570944906,839.7503847337641 1319.3105570944906,839.7503847337641 C1289.3105570944906,839.7503847337641 1259.3105570944906,839.7503847337641 1229.3105570944906,839.7503847337641 C1199.3105570944906,839.7503847337641 1169.3105570944906,839.7503847337641 1139.3105570944906,839.7503847337641 C1109.3105570944906,839.7503847337641 1079.3105570944906,839.7503847337641 1049.3105570944906,839.7503847337641 C1019.3105570944906,839.7503847337641 989.3105570944906,839.7503847337641 959.3105570944906,839.7503847337641 C929.3105570944906,839.7503847337641 899.3105570944906,839.7503847337641 869.3105570944906,839.7503847337641 C839.3105570944906,839.7503847337641 809.3105570944906,839.7503847337641 779.3105570944906,839.7503847337641 C749.3105570944906,839.7503847337641 719.3105570944906,839.7503847337641 689.3105570944906,839.7503847337641 C659.3105570944906,839.7503847337641 629.3105570944906,839.7503847337641 599.3105570944906,839.7503847337641 C569.3105570944906,839.7503847337641 539.3105570944906,839.7503847337641 524.3105570944906,839.7503847337641 C524.3105570944906,839.7503847337641 509.3105570944906,839.7503847337641 509.3105570944906,839.7503847337641 C509.3105570944906,839.7503847337641 509.3105570944902,596.2878371961817 509.3105570944902,596.2878371961817 Z" fill="#6988fa"/>
		</g>
		<g transform="matrix(2.133333333,0,0,1.498233201,-1086.529188468,-178.141906803)">
			<path d="M509.31055709449026,649.7340069824866 C509.31055709449026,649.7340069824866 524.3105570944903,663.8091151184674 524.3105570944903,663.8091151184674 C539.7484184578065,674.5148751250447 568.0362887825722,696.903006935486 599.3105570944906,696.5503725267329 C629.3105570944906,695.7503847337641 657.6142445944905,721.5721773363414 687.6142445944905,721.3721651293101 C717.6142445944905,721.2721895433726 747.6142445944905,720.8721651293101 777.6142445944904,726.0721773363414 C807.6142445944904,731.2721895433726 837.6142445944904,741.8721651293101 867.6142445944904,741.3721651293101 C897.6142445944904,740.8721651293101 927.6142445944904,729.2721895433726 957.6142445944904,729.2721895433726 C987.6142445944904,729.2721895433726 1017.6142445944904,740.8721651293101 1047.6142445944906,741.0721773363414 C1077.6142445944906,741.2721895433726 1107.6142445944906,729.8721651293101 1137.6142445944906,728.8721651293101 C1167.6142445944906,727.8721651293101 1197.6142445944906,737.2721895433726 1227.6142445944906,737.0721773363414 C1252.5190752100325,745.1780449058066 1292.3990568032875,713.8573334182613 1303.6505911729523,710.291233600192 C1315.2746547579775,706.6070630974074 1376.0958679361052,705.3501706657482 1383.7121555366177,694.3150409074033 C1389.3241836866564,686.1838538919611 1409.3105570944906,672.933606169263 1409.3105570944906,672.933606169263 C1409.3105570944906,672.933606169263 1409.3105570944906,839.7503847337641 1409.3105570944906,839.7503847337641 C1409.3105570944906,839.7503847337641 1394.3105570944906,839.7503847337641 1394.3105570944906,839.7503847337641 C1379.3105570944906,839.7503847337641 1349.3105570944906,839.7503847337641 1319.3105570944906,839.7503847337641 C1289.3105570944906,839.7503847337641 1259.3105570944906,839.7503847337641 1229.3105570944906,839.7503847337641 C1199.3105570944906,839.7503847337641 1169.3105570944906,839.7503847337641 1139.3105570944906,839.7503847337641 C1109.3105570944906,839.7503847337641 1079.3105570944906,839.7503847337641 1049.3105570944906,839.7503847337641 C1019.3105570944906,839.7503847337641 989.3105570944906,839.7503847337641 959.3105570944906,839.7503847337641 C929.3105570944906,839.7503847337641 899.3105570944906,839.7503847337641 869.3105570944906,839.7503847337641 C839.3105570944906,839.7503847337641 809.3105570944906,839.7503847337641 779.3105570944906,839.7503847337641 C749.3105570944906,839.7503847337641 719.3105570944906,839.7503847337641 689.3105570944906,839.7503847337641 C659.3105570944906,839.7503847337641 629.3105570944906,839.7503847337641 599.3105570944906,839.7503847337641 C569.3105570944906,839.7503847337641 539.3105570944906,839.7503847337641 524.3105570944906,839.7503847337641 C524.3105570944906,839.7503847337641 509.3105570944906,839.7503847337641 509.3105570944906,839.7503847337641 C509.3105570944906,839.7503847337641 509.31055709449026,649.7340069824866 509.31055709449026,649.7340069824866 Z" fill="#506aeb"/>
		</g>
		<g transform="matrix(2.133333333,0,0,1.498233201,-1086.529188468,-178.141906803)">
			<path d="M509.3105570944906,753.7503847337641 C509.3105570944906,753.7503847337641 524.3105570944906,754.0503725267329 524.3105570944906,754.0503725267329 C539.3105570944906,754.4503969407954 569.3105570944906,755.0503725267329 599.3105570944906,756.2503847337641 C629.3105570944906,757.4503969407954 657.6142445944905,784.8721651293101 687.6142445944905,782.7721895433726 C717.6142445944905,780.5721773363414 747.6142445944905,774.5721773363414 777.6142445944904,771.7721895433726 C807.6142445944904,768.8721651293101 837.6142445944904,769.2721895433726 867.6142445944904,767.8721651293101 C897.6142445944904,766.5721773363414 927.6142445944904,763.5721773363414 957.6142445944904,763.5721773363414 C987.6142445944904,763.5721773363414 1017.6142445944904,766.5721773363414 1047.6142445944906,769.2721895433726 C1077.6142445944906,771.8721651293101 1107.6142445944906,774.2721895433726 1137.6142445944906,773.5721773363414 C1167.6142445944906,772.8721651293101 1197.6142445944906,769.2721895433726 1227.6142445944906,771.5721773363414 C1257.6142445944906,773.8721651293101 1289.3105570944906,756.4503969407954 1319.3105570944906,758.2503847337641 C1349.3105570944906,760.0503725267329 1379.3105570944906,755.4503969407954 1394.3105570944906,753.0503725267329 C1394.3105570944906,753.0503725267329 1409.3105570944906,750.7503847337641 1409.3105570944906,750.7503847337641 C1409.3105570944906,750.7503847337641 1409.3105570944906,839.7503847337641 1409.3105570944906,839.7503847337641 C1409.3105570944906,839.7503847337641 1394.3105570944906,839.7503847337641 1394.3105570944906,839.7503847337641 C1379.3105570944906,839.7503847337641 1349.3105570944906,839.7503847337641 1319.3105570944906,839.7503847337641 C1289.3105570944906,839.7503847337641 1259.3105570944906,839.7503847337641 1229.3105570944906,839.7503847337641 C1199.3105570944906,839.7503847337641 1169.3105570944906,839.7503847337641 1139.3105570944906,839.7503847337641 C1109.3105570944906,839.7503847337641 1079.3105570944906,839.7503847337641 1049.3105570944906,839.7503847337641 C1019.3105570944906,839.7503847337641 989.3105570944906,839.7503847337641 959.3105570944906,839.7503847337641 C929.3105570944906,839.7503847337641 899.3105570944906,839.7503847337641 869.3105570944906,839.7503847337641 C839.3105570944906,839.7503847337641 809.3105570944906,839.7503847337641 779.3105570944906,839.7503847337641 C749.3105570944906,839.7503847337641 719.3105570944906,839.7503847337641 689.3105570944906,839.7503847337641 C659.3105570944906,839.7503847337641 629.3105570944906,839.7503847337641 599.3105570944906,839.7503847337641 C569.3105570944906,839.7503847337641 539.3105570944906,839.7503847337641 524.3105570944906,839.7503847337641 C524.3105570944906,839.7503847337641 509.3105570944906,839.7503847337641 509.3105570944906,839.7503847337641 C509.3105570944906,839.7503847337641 509.3105570944906,753.7503847337641 509.3105570944906,753.7503847337641 Z" fill="#394bda"/>
		</g>
		<g transform="matrix(2.133333333,0,0,1.498233201,-1086.529188468,-178.141906803)">
			<path d="M509.3105570944906,792.7503847337641 C509.3105570944906,792.7503847337641 524.3105570944906,794.5503725267329 524.3105570944906,794.5503725267329 C539.3105570944906,796.4503969407954 569.3105570944906,800.0503725267329 599.3105570944906,797.2503847337641 C629.3105570944906,794.4503969407954 657.6142445944905,810.8721651293101 687.6142445944905,809.0721773363414 C717.6142445944905,807.2721895433726 747.6142445944905,812.8721651293101 777.6142445944904,815.8721651293101 C807.6142445944904,818.8721651293101 837.6142445944904,819.2721895433726 867.6142445944904,818.5721773363414 C897.6142445944904,817.8721651293101 927.6142445944904,816.2721895433726 957.6142445944904,816.8721651293101 C987.6142445944904,817.5721773363414 1017.6142445944904,820.5721773363414 1047.6142445944906,818.3721651293101 C1077.6142445944906,816.2721895433726 1107.6142445944906,808.8721651293101 1137.6142445944906,808.3721651293101 C1167.6142445944906,807.8721651293101 1197.6142445944906,814.2721895433726 1227.6142445944906,817.0721773363414 C1257.6142445944906,819.8721651293101 1289.3105570944906,793.4503969407954 1319.3105570944906,794.0503725267329 C1349.3105570944906,794.7503847337641 1379.3105570944906,796.7503847337641 1394.3105570944906,797.7503847337641 C1394.3105570944906,797.7503847337641 1409.3105570944906,798.7503847337641 1409.3105570944906,798.7503847337641 C1409.3105570944906,798.7503847337641 1409.3105570944906,839.7503847337641 1409.3105570944906,839.7503847337641 C1409.3105570944906,839.7503847337641 1394.3105570944906,839.7503847337641 1394.3105570944906,839.7503847337641 C1379.3105570944906,839.7503847337641 1349.3105570944906,839.7503847337641 1319.3105570944906,839.7503847337641 C1289.3105570944906,839.7503847337641 1259.3105570944906,839.7503847337641 1229.3105570944906,839.7503847337641 C1199.3105570944906,839.7503847337641 1169.3105570944906,839.7503847337641 1139.3105570944906,839.7503847337641 C1109.3105570944906,839.7503847337641 1079.3105570944906,839.7503847337641 1049.3105570944906,839.7503847337641 C1019.3105570944906,839.7503847337641 989.3105570944906,839.7503847337641 959.3105570944906,839.7503847337641 C929.3105570944906,839.7503847337641 899.3105570944906,839.7503847337641 869.3105570944906,839.7503847337641 C839.3105570944906,839.7503847337641 809.3105570944906,839.7503847337641 779.3105570944906,839.7503847337641 C749.3105570944906,839.7503847337641 719.3105570944906,839.7503847337641 689.3105570944906,839.7503847337641 C659.3105570944906,839.7503847337641 629.3105570944906,839.7503847337641 599.3105570944906,839.7503847337641 C569.3105570944906,839.7503847337641 539.3105570944906,839.7503847337641 524.3105570944906,839.7503847337641 C524.3105570944906,839.7503847337641 509.3105570944906,839.7503847337641 509.3105570944906,839.7503847337641 C509.3105570944906,839.7503847337641 509.3105570944906,792.7503847337641 509.3105570944906,792.7503847337641 Z" fill="#2429c7"/>
		</g>
	</g>
</g></g></svg>